<?xml version="1.0" standalone="no"?><!DOCTYPE svg PUBLIC "-//W3C//DTD SVG 1.1//EN" "http://www.w3.org/Graphics/SVG/1.1/DTD/svg11.dtd"><svg t="1568635348532" class="icon" viewBox="0 0 1024 1024" version="1.1" xmlns="http://www.w3.org/2000/svg" p-id="1113" xmlns:xlink="http://www.w3.org/1999/xlink" width="200" height="200"><defs><style type="text/css"></style></defs><path d="M758.616 315.112a29.36 29.36 0 0 0-45.736-9.488L437.416 544.816a2.896 2.896 0 0 1-3.968-0.168L335.264 443.44a29.376 29.376 0 0 0-47 6.624l-28.224 52.808a29.304 29.304 0 0 0 3.072 32.32l147.512 182.344a29.272 29.272 0 0 0 22.84 10.904h0.032a29.28 29.28 0 0 0 22.848-10.968l298.648-371.256a29.096 29.096 0 0 0 3.624-31.104z" fill="#1afa29" p-id="1114"></path><path d="M433.496 740.44h-0.08a41.064 41.064 0 0 1-32.136-15.384l-147.496-182.32a41.2 41.2 0 0 1-4.328-45.528l28.224-52.8c2.04-3.816 4.624-7.248 7.688-10.208a41.136 41.136 0 0 1 28.8-11.672c11.296 0 21.84 4.464 29.704 12.568l92.176 95.016 268.96-233.552a40.88 40.88 0 0 1 9.248-6.072 40.992 40.992 0 0 1 17.848-4.072 41.6 41.6 0 0 1 37.328 23.512 41.2 41.2 0 0 1-5.152 43.872L465.696 724.992a41.04 41.04 0 0 1-32.2 15.448z m-119.328-293.92a17.296 17.296 0 0 0-15.328 9.2l-28.224 52.808a17.248 17.248 0 0 0 1.808 19.088l147.528 182.368a17.2 17.2 0 0 0 13.464 6.456v12l0.032-12a17.2 17.2 0 0 0 13.528-6.472l298.664-371.28c4.24-5.192 5.08-12.368 2.176-18.336-4.032-8.416-14.728-12.272-23.192-8.216a16.928 16.928 0 0 0-3.856 2.536l-275.488 239.2c-5.864 5.024-15.136 4.552-20.408-0.832L326.656 451.8a17.24 17.24 0 0 0-12.488-5.28z" fill="#1afa29" p-id="1115"></path></svg>