<?xml version="1.0" standalone="no"?><!DOCTYPE svg PUBLIC "-//W3C//DTD SVG 1.1//EN" "http://www.w3.org/Graphics/SVG/1.1/DTD/svg11.dtd"><svg t="1568635394947" class="icon" viewBox="0 0 1024 1024" version="1.1" xmlns="http://www.w3.org/2000/svg" p-id="2351" xmlns:xlink="http://www.w3.org/1999/xlink" width="200" height="200"><defs><style type="text/css"></style></defs><path d="M638.296 461L751.304 348a39.36 39.36 0 0 0 0-55.664L708.16 249.2a39.36 39.36 0 0 0-55.656 0L539.504 362.192 426.488 249.184a39.36 39.36 0 0 0-55.664 0.008l-43.136 43.128a39.352 39.352 0 0 0 0 55.664l113.008 113.008-113.008 113.016a39.352 39.352 0 0 0 0 55.664l43.136 43.152a39.384 39.384 0 0 0 55.664 0l113.008-113.016 113 113.016a39.392 39.392 0 0 0 55.672 0l43.144-43.152a39.376 39.376 0 0 0 0-55.672L638.296 461z" fill="#E22D2D" p-id="2352"></path><path d="M680.336 692.336a47.12 47.12 0 0 1-33.496-13.856L539.504 571.12l-107.36 107.36c-8.944 8.936-20.832 13.856-33.488 13.856s-24.544-4.92-33.488-13.856l-43.144-43.152a47.04 47.04 0 0 1-13.872-33.496c0-12.648 4.928-24.544 13.872-33.488l107.352-107.36-107.344-107.344a47.04 47.04 0 0 1-13.872-33.488c0-12.656 4.928-24.544 13.872-33.496l43.136-43.128a47.024 47.024 0 0 1 33.496-13.872c12.648 0 24.536 4.928 33.48 13.864l107.36 107.36 107.344-107.336c8.936-8.944 20.832-13.864 33.488-13.864s24.544 4.92 33.488 13.864l43.152 43.136a47.416 47.416 0 0 1 0 66.976L649.608 461l107.36 107.344a47.408 47.408 0 0 1 0 66.984l-43.144 43.152a47.088 47.088 0 0 1-33.488 13.856z m-140.832-143.84L658.16 667.168c11.84 11.832 32.512 11.832 44.36 0l43.144-43.152a31.416 31.416 0 0 0 0-44.36L626.984 461l118.664-118.656a31.408 31.408 0 0 0 0-44.352l-43.152-43.136c-11.832-11.84-32.512-11.84-44.344 0L539.504 373.504 420.832 254.84c-11.848-11.848-32.504-11.848-44.352 0.008l-43.136 43.128a31.144 31.144 0 0 0-9.184 22.176c0 8.376 3.264 16.248 9.184 22.168l118.664 118.664-118.664 118.68a31.12 31.12 0 0 0-9.184 22.168c0 8.384 3.264 16.256 9.184 22.176l43.136 43.152c11.84 11.832 32.504 11.832 44.352 0l118.672-118.664z" fill="#AF3737" p-id="2353"></path></svg>